<?xml version="1.0" encoding="utf-8"?>
<!-- Generator: Adobe Illustrator 16.0.0, SVG Export Plug-In . SVG Version: 6.00 Build 0)  -->
<!DOCTYPE svg PUBLIC "-//W3C//DTD SVG 1.1//EN" "http://www.w3.org/Graphics/SVG/1.1/DTD/svg11.dtd">
<svg version="1.1"
	 id="svg2" xmlns:svg="http://www.w3.org/2000/svg" xmlns:rdf="http://www.w3.org/1999/02/22-rdf-syntax-ns#" xmlns:cc="http://creativecommons.org/ns#" xmlns:dc="http://purl.org/dc/elements/1.1/"
	 xmlns="http://www.w3.org/2000/svg" xmlns:xlink="http://www.w3.org/1999/xlink" x="0px" y="0px" width="130px" height="51.254px"
	 viewBox="0 0 130 51.254" enable-background="new 0 0 130 51.254" xml:space="preserve">
<g id="g10" transform="matrix(1.25,0,0,-1.25,-193.46271,442.73946)">
	<path id="path38" fill="#FFFFFF" d="M200.538,338.655c-2.38,0-4.861-1.738-4.861-1.738v1.118c0,0.245-0.098,0.343-0.343,0.343
		h-3.038c-0.245,0-0.392-0.147-0.392-0.343v-23.827c0-0.245,0.098-0.392,0.343-0.392h3.086c0.195,0,0.343,0.147,0.343,0.392v20.395
		c0,0,1.432,0.908,3.172,0.908c1.657,0,2.964-0.822,2.964-2.51c0-1.176,0-18.794,0-18.794c0-0.245,0.147-0.392,0.392-0.392h3.037
		c0.245,0,0.343,0.196,0.343,0.392v19.861C205.585,337.06,203.748,338.655,200.538,338.655z"/>
	<path id="path40" fill="#FFFFFF" d="M224.165,350.606h-3.037c-0.245,0-0.392-0.147-0.392-0.343v-12.02
		c-1.166,0.448-2.227,0.685-3.085,0.685c-4.934,0-8.32-4.72-8.32-13.795c0-7.774,3.294-11.944,7.594-11.944
		c1.812,0,3.308,1.039,4.403,2.014l0.663-1.125c0.112-0.195,0.204-0.261,0.428-0.261l1.746-0.002c0.196,0,0.344,0.148,0.344,0.393
		v36.055C224.509,350.508,224.411,350.606,224.165,350.606L224.165,350.606z M213.348,325.935c0,5,1.462,9.952,4.448,9.952
		c1.012,0,1.984-0.333,2.94-1.093v-17.617c-0.748-0.407-1.689-0.784-2.706-0.784C214.783,316.393,213.348,320.248,213.348,325.935z"
		/>
	<path id="path42" fill="#FFFFFF" d="M235.801,338.878c-5.058,0-7.555-6.622-7.555-13.829c0-7.543,3.561-11.771,8.139-11.771
		c2.013,0,4.016,0.793,5.33,1.523c0.201,0.112,0.237,0.27,0.189,0.464l-0.384,1.594c-0.048,0.195-0.145,0.292-0.389,0.292
		c-0.107,0-1.766-0.486-3.381-0.486c-3.747,0-5.465,3.334-5.465,7.761c0,0.584,0,1.075,0,1.075s1.862-0.258,2.981-0.258h7.068v2.045
		C242.334,334.836,239.694,338.878,235.801,338.878L235.801,338.878z M235.558,328.312c-1.12,0-3.155-0.277-3.155-0.277
		s0.027,0.812,0.125,1.591c0.438,4.139,1.424,6.233,3.127,6.233c1.48,0,2.495-2.142,2.738-5.892
		c0.048-0.779,0.048-1.655,0.048-1.655L235.558,328.312L235.558,328.312L235.558,328.312z"/>
	<path id="path44" fill="#FFFFFF" d="M186.136,335.783c-1.123,2.215-3.124,3.183-5.416,3.183c-1.473,0-3.77-0.563-5.305-1.254
		c-0.3-0.135-0.49-0.254-0.49-0.49c0-0.141,0.07-0.302,0.147-0.442l1.034-2.215c0.107-0.25,0.277-0.307,0.418-0.307
		c0.153,0,0.277,0.073,0.414,0.161c1.497,0.957,2.593,1.484,3.461,1.484c1.148,0,1.928-0.763,2.409-1.909
		c0.448-1.069,0.621-2.544,0.621-4.25c0-0.217,0.001-0.501,0.001-0.501c-0.943,0.591-2.577,0.916-3.393,0.916
		c-4.389,0-6.756-4.173-6.756-8.636c0-4.808,2.766-8.334,6.09-8.334c1.852,0,3.527,1.087,4.65,2.459c0,0,0.598-1.426,0.676-1.597
		c0.078-0.171,0.161-0.234,0.386-0.234l1.776-0.002c0.195,0,0.343,0.148,0.343,0.393v13.822
		C187.203,331.424,187.032,334.016,186.136,335.783L186.136,335.783z M183.431,317.676c-0.87-0.841-1.912-1.283-2.85-1.283
		c-0.938,0-1.663,0.434-2.243,1.237c-0.707,0.977-1.037,2.481-1.037,4.148c0,2.636,0.972,5.341,3.034,5.341
		c1.02,0,2.141-0.331,3.097-1.093V317.676L183.431,317.676z"/>
	<path id="path46" fill="#FFFFFF" d="M258.376,338.38c-0.416,0-2.405,0-2.708,0c-0.302,0-0.456-0.159-0.534-0.364
		c-0.172-0.45-1.316-3.466-1.784-4.716c-0.335-0.893-1.236-3.449-1.236-3.449l-0.105,0.001c-0.003,0.009-0.663,1.859-1.02,2.786
		c-0.289,0.751-1.797,4.727-1.988,5.218c-0.102,0.263-0.216,0.524-0.604,0.524c-0.523,0-2.638,0-2.964,0
		c-0.325,0-0.509-0.357-0.405-0.579c0.105-0.223,4.828-10.988,4.828-10.988s-5.072-12.055-5.22-12.325
		c-0.148-0.272,0.039-0.672,0.4-0.672c0.359,0,2.156,0,2.597,0c0.442,0,0.617,0.231,0.75,0.605c0.373,1.047,0.929,2.503,1.716,4.752
		c0.522,1.491,1.347,4.107,1.347,4.107h0.091c0,0,0.903-2.666,1.239-3.538c0.848-2.205,1.934-5.085,2.05-5.389
		c0.12-0.318,0.287-0.537,0.591-0.537s2.653,0,2.946,0c0.291,0,0.426,0.333,0.289,0.622c-0.328,0.691-3.125,7.495-5.068,11.966
		c0,0,5.041,11.134,5.14,11.409C258.822,338.089,258.792,338.38,258.376,338.38L258.376,338.38z"/>
	<path id="path48" fill="#FFFFFF" d="M176.351,354.192h-3.415c-0.302,0-0.491-0.148-0.535-0.364
		c-0.043-0.216-5.121-15.71-5.49-17.001c-0.261-0.915-1.115-4.141-1.32-4.915l-1.766,4.825c-0.429,1.328-4.542,12.827-4.662,13.286
		c-0.067,0.253-0.182,0.566-0.625,0.566h-3.334c-0.326,0-0.511-0.358-0.405-0.58c0.084-0.178,6.106-16.21,8.539-22.335v-13.466
		c0-0.246,0.098-0.393,0.343-0.393h3.157c0.196,0,0.343,0.147,0.343,0.393v12.765v0.595c2.028,5.668,9.436,25.831,9.516,26.057
		C176.796,353.901,176.767,354.192,176.351,354.192L176.351,354.192z"/>
</g>
</svg>
